# xmcd
#
# Track frame offsets: 
#        150
#        23505
#        49645
#        64607
#        77360
#        97285
#        120802
#        147345
#        164660
#        183095
#        196260
#        214892
#        232217
#
# Disc length: 3410 seconds
#
# Revision: 0
# Processed by: cddbd v1.5.1PL0 Copyright (c) Steve Scherf et al.
# Submitted via: ExactAudioCopy v0.95a5
#
DISCID=ab0d500d
DTITLE=Runaway Truck Ramp - Yellow
DYEAR=1998
DGENRE=Bluegrass
TTITLE0=Amarillo to Gold Hill
TTITLE1=Grand Old West
TTITLE2=Monday Calling
TTITLE3=RTR
TTITLE4=Fun
TTITLE5=Into the Wild
TTITLE6=Yes It Ain't
TTITLE7=Indian Prayer
TTITLE8=What You See is What You Get
TTITLE9=Epithalamium
TTITLE10=Freight Train
TTITLE11=Yellow Guy
TTITLE12=The Lasting Burn
EXTD=
EXTT0=
EXTT1=
EXTT2=
EXTT3=
EXTT4=
EXTT5=
EXTT6=
EXTT7=
EXTT8=
EXTT9=
EXTT10=
EXTT11=
EXTT12=
PLAYORDER=
